# xmcd CD database file
#
# Track frame offsets:
#	150
#	16542
#	32499
#	59143
#	80906
#	92516
#	114752
#	134795
#	173841
#	193873
#
# Disc length: 2821 seconds
#
# Revision: 0
# Processed by: cddbd v1.5.1PL0 Copyright (c) Steve Scherf et al.
# Submitted via: CDex 1.51
#
DISCID=810b030a
DTITLE=CANTA - NON-HOMOGENIZED
DYEAR=2005
DGENRE=Rock
TTITLE0=Fly!
TTITLE1=破綻ライダー
TTITLE2=ワルツ
TTITLE3=Crying Days
TTITLE4=ライブハウスにて
TTITLE5=悲しき絆創膏
TTITLE6=Survival and Revival
TTITLE7=ずっとずっと
TTITLE8=Tonight^3
TTITLE9=愛の夏
EXTD=YEAR: 2005
EXTT0=
EXTT1=
EXTT2=
EXTT3=
EXTT4=
EXTT5=
EXTT6=
EXTT7=
EXTT8=
EXTT9=
PLAYORDER=
